<svg width="33" height="34" viewBox="0 0 33 34" fill="none" xmlns="http://www.w3.org/2000/svg">
<path d="M12.12 12.78C12.05 12.77 11.96 12.77 11.88 12.78C10.12 12.72 8.71997 11.28 8.71997 9.50998C8.71997 7.69998 10.18 6.22998 12 6.22998C13.81 6.22998 15.28 7.69998 15.28 9.50998C15.27 11.28 13.88 12.72 12.12 12.78Z" stroke="white" stroke-width="1.5" stroke-linecap="round" stroke-linejoin="round"/>
<path d="M18.74 19.3801C16.96 21.0101 14.6 22.0001 12 22.0001C9.40001 22.0001 7.04001 21.0101 5.26001 19.3801C5.36001 18.4401 5.96001 17.5201 7.03001 16.8001C9.77001 14.9801 14.25 14.9801 16.97 16.8001C18.04 17.5201 18.64 18.4401 18.74 19.3801Z" stroke="white" stroke-width="1.5" stroke-linecap="round" stroke-linejoin="round"/>
<path d="M12 22C17.5228 22 22 17.5228 22 12C22 6.47715 17.5228 2 12 2C6.47715 2 2 6.47715 2 12C2 17.5228 6.47715 22 12 22Z" stroke="white" stroke-width="1.5" stroke-linecap="round" stroke-linejoin="round"/>
<g filter="url(#filter0_d_2276_18266)">
<circle cx="22" cy="19" r="7" fill="white"/>
</g>
<path d="M25.397 17.396H18.6029C18.4482 17.396 18.3198 17.2677 18.3198 17.1129C18.3198 16.9582 18.4482 16.8298 18.6029 16.8298H25.397C25.5518 16.8298 25.6801 16.9582 25.6801 17.1129C25.6801 17.2677 25.5518 17.396 25.397 17.396Z" fill="#333333"/>
<path d="M25.397 19.2832H18.6029C18.4482 19.2832 18.3198 19.1549 18.3198 19.0001C18.3198 18.8454 18.4482 18.717 18.6029 18.717H25.397C25.5518 18.717 25.6801 18.8454 25.6801 19.0001C25.6801 19.1549 25.5518 19.2832 25.397 19.2832Z" fill="#333333"/>
<path d="M25.397 21.1704H18.6029C18.4482 21.1704 18.3198 21.0421 18.3198 20.8873C18.3198 20.7326 18.4482 20.6042 18.6029 20.6042H25.397C25.5518 20.6042 25.6801 20.7326 25.6801 20.8873C25.6801 21.0421 25.5518 21.1704 25.397 21.1704Z" fill="#333333"/>
<defs>
<filter id="filter0_d_2276_18266" x="11" y="12" width="22" height="22" filterUnits="userSpaceOnUse" color-interpolation-filters="sRGB">
<feFlood flood-opacity="0" result="BackgroundImageFix"/>
<feColorMatrix in="SourceAlpha" type="matrix" values="0 0 0 0 0 0 0 0 0 0 0 0 0 0 0 0 0 0 127 0" result="hardAlpha"/>
<feOffset dy="4"/>
<feGaussianBlur stdDeviation="2"/>
<feComposite in2="hardAlpha" operator="out"/>
<feColorMatrix type="matrix" values="0 0 0 0 0 0 0 0 0 0 0 0 0 0 0 0 0 0 0.25 0"/>
<feBlend mode="normal" in2="BackgroundImageFix" result="effect1_dropShadow_2276_18266"/>
<feBlend mode="normal" in="SourceGraphic" in2="effect1_dropShadow_2276_18266" result="shape"/>
</filter>
</defs>
</svg>
